<svg id="visual" viewBox="0 0 900 600" width="900" height="600" xmlns="http://www.w3.org/2000/svg" xmlns:xlink="http://www.w3.org/1999/xlink" version="1.1"><g stroke-width="1" stroke-linejoin="bevel"><path d="M501 311L490 376L572 337Z" fill="#002f81" stroke="#002f81"></path><path d="M370 309L434 425L490 376Z" fill="#003298" stroke="#003298"></path><path d="M582 480L636 423L572 337Z" fill="#342cd9" stroke="#342cd9"></path><path d="M582 480L572 337L490 376Z" fill="#342cd9" stroke="#342cd9"></path><path d="M578 167L462 233L501 311Z" fill="#002f81" stroke="#002f81"></path><path d="M501 311L370 309L490 376Z" fill="#002f81" stroke="#002f81"></path><path d="M503 493L582 480L490 376Z" fill="#003298" stroke="#003298"></path><path d="M434 425L503 493L490 376Z" fill="#001a34" stroke="#001a34"></path><path d="M462 233L370 309L501 311Z" fill="#002f81" stroke="#002f81"></path><path d="M719 331L660 232L572 337Z" fill="#0732ae" stroke="#0732ae"></path><path d="M572 337L578 167L501 311Z" fill="#4c21ed" stroke="#4c21ed"></path><path d="M499 136L407 219L462 233Z" fill="#002a67" stroke="#002a67"></path><path d="M462 233L407 219L370 309Z" fill="#0732ae" stroke="#0732ae"></path><path d="M660 232L578 167L572 337Z" fill="#002f81" stroke="#002f81"></path><path d="M286 391L378 466L434 425Z" fill="#4c21ed" stroke="#4c21ed"></path><path d="M434 425L378 466L503 493Z" fill="#6600ff" stroke="#6600ff"></path><path d="M636 423L719 331L572 337Z" fill="#003298" stroke="#003298"></path><path d="M636 423L736 369L719 331Z" fill="#6600ff" stroke="#6600ff"></path><path d="M734 502L736 369L636 423Z" fill="#00101c" stroke="#00101c"></path><path d="M407 219L321 301L370 309Z" fill="#002f81" stroke="#002f81"></path><path d="M370 309L286 391L434 425Z" fill="#6600ff" stroke="#6600ff"></path><path d="M578 167L499 136L462 233Z" fill="#001a34" stroke="#001a34"></path><path d="M698 120L561 124L578 167Z" fill="#6600ff" stroke="#6600ff"></path><path d="M578 167L561 124L499 136Z" fill="#6600ff" stroke="#6600ff"></path><path d="M321 301L286 391L370 309Z" fill="#002a67" stroke="#002a67"></path><path d="M503 493L565 600L582 480Z" fill="#00101c" stroke="#00101c"></path><path d="M582 480L734 502L636 423Z" fill="#00101c" stroke="#00101c"></path><path d="M369 600L512 600L503 493Z" fill="#003298" stroke="#003298"></path><path d="M369 600L503 493L378 466Z" fill="#0732ae" stroke="#0732ae"></path><path d="M512 600L565 600L503 493Z" fill="#003298" stroke="#003298"></path><path d="M699 600L734 502L582 480Z" fill="#002f81" stroke="#002f81"></path><path d="M489 0L414 100L499 136Z" fill="#342cd9" stroke="#342cd9"></path><path d="M499 136L414 100L407 219Z" fill="#00234d" stroke="#00234d"></path><path d="M407 219L280 216L321 301Z" fill="#001a34" stroke="#001a34"></path><path d="M306 103L280 216L407 219Z" fill="#00101c" stroke="#00101c"></path><path d="M321 301L195 322L286 391Z" fill="#003298" stroke="#003298"></path><path d="M793 193L698 120L660 232Z" fill="#003298" stroke="#003298"></path><path d="M660 232L698 120L578 167Z" fill="#003298" stroke="#003298"></path><path d="M561 124L489 0L499 136Z" fill="#6600ff" stroke="#6600ff"></path><path d="M793 193L660 232L719 331Z" fill="#4c21ed" stroke="#4c21ed"></path><path d="M734 502L815 404L736 369Z" fill="#002f81" stroke="#002f81"></path><path d="M736 369L834 290L719 331Z" fill="#002a67" stroke="#002a67"></path><path d="M260 518L369 600L378 466Z" fill="#00101c" stroke="#00101c"></path><path d="M565 600L699 600L582 480Z" fill="#002f81" stroke="#002f81"></path><path d="M734 502L814 475L815 404Z" fill="#001a34" stroke="#001a34"></path><path d="M834 290L793 193L719 331Z" fill="#342cd9" stroke="#342cd9"></path><path d="M815 404L834 290L736 369Z" fill="#6600ff" stroke="#6600ff"></path><path d="M788 600L814 475L734 502Z" fill="#6600ff" stroke="#6600ff"></path><path d="M815 404L900 365L834 290Z" fill="#0732ae" stroke="#0732ae"></path><path d="M197 482L260 518L286 391Z" fill="#003298" stroke="#003298"></path><path d="M286 391L260 518L378 466Z" fill="#002a67" stroke="#002a67"></path><path d="M414 100L306 103L407 219Z" fill="#1c31c4" stroke="#1c31c4"></path><path d="M170 182L195 322L280 216Z" fill="#0732ae" stroke="#0732ae"></path><path d="M280 216L195 322L321 301Z" fill="#4c21ed" stroke="#4c21ed"></path><path d="M260 518L298 600L369 600Z" fill="#001a34" stroke="#001a34"></path><path d="M639 0L489 0L561 124Z" fill="#1c31c4" stroke="#1c31c4"></path><path d="M414 100L330 0L306 103Z" fill="#0732ae" stroke="#0732ae"></path><path d="M161 412L197 482L286 391Z" fill="#6600ff" stroke="#6600ff"></path><path d="M260 518L198 600L298 600Z" fill="#00101c" stroke="#00101c"></path><path d="M699 600L788 600L734 502Z" fill="#4c21ed" stroke="#4c21ed"></path><path d="M698 120L639 0L561 124Z" fill="#002f81" stroke="#002f81"></path><path d="M734 0L639 0L698 120Z" fill="#342cd9" stroke="#342cd9"></path><path d="M489 0L408 0L414 100Z" fill="#0732ae" stroke="#0732ae"></path><path d="M195 322L161 412L286 391Z" fill="#002f81" stroke="#002f81"></path><path d="M900 535L900 365L814 475Z" fill="#4c21ed" stroke="#4c21ed"></path><path d="M814 475L900 365L815 404Z" fill="#001a34" stroke="#001a34"></path><path d="M834 290L900 222L793 193Z" fill="#342cd9" stroke="#342cd9"></path><path d="M900 365L900 262L834 290Z" fill="#342cd9" stroke="#342cd9"></path><path d="M793 193L836 87L698 120Z" fill="#003298" stroke="#003298"></path><path d="M900 262L900 222L834 290Z" fill="#00101c" stroke="#00101c"></path><path d="M306 103L170 182L280 216Z" fill="#1c31c4" stroke="#1c31c4"></path><path d="M195 322L105 371L161 412Z" fill="#0732ae" stroke="#0732ae"></path><path d="M188 73L170 182L306 103Z" fill="#00101c" stroke="#00101c"></path><path d="M408 0L330 0L414 100Z" fill="#1c31c4" stroke="#1c31c4"></path><path d="M900 103L836 87L793 193Z" fill="#4c21ed" stroke="#4c21ed"></path><path d="M836 87L734 0L698 120Z" fill="#00101c" stroke="#00101c"></path><path d="M80 600L198 600L197 482Z" fill="#1c31c4" stroke="#1c31c4"></path><path d="M197 482L198 600L260 518Z" fill="#002f81" stroke="#002f81"></path><path d="M788 600L900 535L814 475Z" fill="#002f81" stroke="#002f81"></path><path d="M170 182L111 307L195 322Z" fill="#00234d" stroke="#00234d"></path><path d="M161 412L97 466L197 482Z" fill="#00234d" stroke="#00234d"></path><path d="M111 307L105 371L195 322Z" fill="#342cd9" stroke="#342cd9"></path><path d="M193 0L188 73L306 103Z" fill="#003298" stroke="#003298"></path><path d="M170 182L111 164L111 307Z" fill="#0732ae" stroke="#0732ae"></path><path d="M105 371L97 466L161 412Z" fill="#0732ae" stroke="#0732ae"></path><path d="M900 222L900 103L793 193Z" fill="#1c31c4" stroke="#1c31c4"></path><path d="M836 87L833 0L734 0Z" fill="#0732ae" stroke="#0732ae"></path><path d="M788 600L900 600L900 535Z" fill="#0732ae" stroke="#0732ae"></path><path d="M105 93L111 164L170 182Z" fill="#1c31c4" stroke="#1c31c4"></path><path d="M0 293L0 382L105 371Z" fill="#342cd9" stroke="#342cd9"></path><path d="M105 371L0 382L97 466Z" fill="#001a34" stroke="#001a34"></path><path d="M900 0L833 0L836 87Z" fill="#002f81" stroke="#002f81"></path><path d="M330 0L193 0L306 103Z" fill="#0732ae" stroke="#0732ae"></path><path d="M188 73L105 93L170 182Z" fill="#6600ff" stroke="#6600ff"></path><path d="M131 0L105 93L188 73Z" fill="#00234d" stroke="#00234d"></path><path d="M0 293L105 371L111 307Z" fill="#0732ae" stroke="#0732ae"></path><path d="M900 103L900 0L836 87Z" fill="#4c21ed" stroke="#4c21ed"></path><path d="M0 529L80 600L97 466Z" fill="#00234d" stroke="#00234d"></path><path d="M97 466L80 600L197 482Z" fill="#002a67" stroke="#002a67"></path><path d="M193 0L131 0L188 73Z" fill="#001a34" stroke="#001a34"></path><path d="M0 293L111 307L0 181Z" fill="#002a67" stroke="#002a67"></path><path d="M111 307L111 164L0 181Z" fill="#0732ae" stroke="#0732ae"></path><path d="M0 181L111 164L0 91Z" fill="#00101c" stroke="#00101c"></path><path d="M0 91L111 164L105 93Z" fill="#00101c" stroke="#00101c"></path><path d="M0 382L0 529L97 466Z" fill="#4c21ed" stroke="#4c21ed"></path><path d="M0 529L0 600L80 600Z" fill="#002a67" stroke="#002a67"></path><path d="M0 0L0 91L105 93Z" fill="#00101c" stroke="#00101c"></path><path d="M131 0L0 0L105 93Z" fill="#003298" stroke="#003298"></path></g></svg>