<svg id="visual" viewBox="0 0 900 600" width="900" height="600" xmlns="http://www.w3.org/2000/svg" xmlns:xlink="http://www.w3.org/1999/xlink" version="1.1"><rect width="900" height="600" fill="#121214"></rect><g><g transform="translate(275 313)"><path d="M0 -123.7L107.1 -61.8L107.1 61.8L0 123.7L-107.1 61.8L-107.1 -61.8Z" fill="#715DF2"></path></g><g transform="translate(833 356)"><path d="M0 -84L72.7 -42L72.7 42L0 84L-72.7 42L-72.7 -42Z" fill="#715DF2"></path></g><g transform="translate(771 109)"><path d="M0 -119L103.1 -59.5L103.1 59.5L0 119L-103.1 59.5L-103.1 -59.5Z" fill="#715DF2"></path></g><g transform="translate(534 403)"><path d="M0 -71L61.5 -35.5L61.5 35.5L0 71L-61.5 35.5L-61.5 -35.5Z" fill="#715DF2"></path></g><g transform="translate(73 588)"><path d="M0 -97L84 -48.5L84 48.5L0 97L-84 48.5L-84 -48.5Z" fill="#715DF2"></path></g><g transform="translate(235 38)"><path d="M0 -121L104.8 -60.5L104.8 60.5L0 121L-104.8 60.5L-104.8 -60.5Z" fill="#715DF2"></path></g></g></svg>