<svg xmlns="http://www.w3.org/2000/svg" version="1.1" xmlns:xlink="http://www.w3.org/1999/xlink" xmlns:svgjs="http://svgjs.dev/svgjs" width="2000" height="1500" viewBox="0 0 2000 1500"><rect width="2000" height="1500" fill="#2e024e"></rect><g transform="matrix(0.75,0,0,0.75,249.090909090909,282.7536437246963)"><svg viewBox="0 0 396 247" data-background-color="#2e024e" preserveAspectRatio="xMidYMid meet" height="1247" width="2000" xmlns="http://www.w3.org/2000/svg" xmlns:xlink="http://www.w3.org/1999/xlink"><g id="tight-bounds" transform="matrix(1,0,0,1,0.2400000000000091,-0.09999999999999432)"><svg viewBox="0 0 395.52 247.2" height="247.2" width="395.52"><g><svg></svg></g><g><svg viewBox="0 0 395.52 247.2" height="247.2" width="395.52"><g transform="matrix(1,0,0,1,75.54432,94.33425581027667)"><svg viewBox="0 0 244.43135999999998 58.531488379446635" height="58.531488379446635" width="244.43135999999998"><g><svg viewBox="0 0 244.43135999999998 58.531488379446635" height="58.531488379446635" width="244.43135999999998"><g><svg viewBox="0 0 244.43135999999998 58.531488379446635" height="58.531488379446635" width="244.43135999999998"><g><svg viewBox="0 0 244.43135999999998 58.531488379446635" height="58.531488379446635" width="244.43135999999998"><g id="textblocktransform"><svg viewBox="0 0 244.43135999999998 58.531488379446635" height="58.531488379446635" width="244.43135999999998" id="textblock"><g><svg viewBox="0 0 244.43135999999998 58.531488379446635" height="58.531488379446635" width="244.43135999999998"><g transform="matrix(1,0,0,1,0,0)"><svg width="244.43135999999998" viewBox="2.55 -36 151.79 36.35" height="58.531488379446635" data-palette-color="#d579ff"><path d="M2.55-7.45L6.2-8.9Q6.5-7.55 7.48-6.23 8.45-4.9 10.18-4.03 11.9-3.15 14.6-3.15L14.6-3.15Q18.45-3.15 20.3-4.95 22.15-6.75 22.15-9.2L22.15-9.2Q22.15-11.15 21.1-12.4 20.05-13.65 18.25-14.48 16.45-15.3 14.2-15.95L14.2-15.95Q12.2-16.5 10.23-17.18 8.25-17.85 6.65-18.88 5.05-19.9 4.1-21.55 3.15-23.2 3.15-25.65L3.15-25.65Q3.15-28.6 4.55-30.78 5.95-32.95 8.5-34.15 11.05-35.35 14.45-35.35L14.45-35.35Q17.4-35.35 19.6-34.5 21.8-33.65 23.28-32.13 24.75-30.6 25.45-28.6L25.45-28.6 21.9-27.25Q21.55-28.4 20.55-29.48 19.55-30.55 17.95-31.25 16.35-31.95 14.3-31.95L14.3-31.95Q12.3-31.95 10.68-31.25 9.05-30.55 8.1-29.25 7.15-27.95 7.15-26.1L7.15-26.1Q7.15-24.1 8.28-22.93 9.4-21.75 11.28-21.03 13.15-20.3 15.4-19.65L15.4-19.65Q17.45-19 19.38-18.25 21.3-17.5 22.83-16.4 24.35-15.3 25.25-13.65 26.15-12 26.15-9.6L26.15-9.6Q26.15-6.95 24.9-4.67 23.65-2.4 21.13-1.03 18.6 0.35 14.65 0.35L14.65 0.35Q11.35 0.35 8.85-0.68 6.35-1.7 4.75-3.45 3.15-5.2 2.55-7.45L2.55-7.45ZM43.35 0.35L43.35 0.35Q39.8 0.35 37-1.2 34.2-2.75 32.6-5.63 31-8.5 31-12.45L31-12.45Q31-16.45 32.62-19.35 34.25-22.25 37.07-23.8 39.9-25.35 43.45-25.35L43.45-25.35Q47-25.35 49.82-23.8 52.65-22.25 54.27-19.38 55.9-16.5 55.9-12.55L55.9-12.55Q55.9-8.55 54.25-5.65 52.6-2.75 49.75-1.2 46.9 0.35 43.35 0.35ZM43.3-3.2L43.3-3.2Q45.5-3.2 47.45-4.17 49.4-5.15 50.62-7.23 51.85-9.3 51.85-12.5L51.85-12.5Q51.85-15.75 50.65-17.8 49.45-19.85 47.52-20.83 45.6-21.8 43.4-21.8L43.4-21.8Q41.2-21.8 39.3-20.83 37.4-19.85 36.22-17.78 35.05-15.7 35.05-12.5L35.05-12.5Q35.05-9.25 36.2-7.2 37.35-5.15 39.22-4.17 41.1-3.2 43.3-3.2ZM62.05 0L62.05-36 65.8-36 65.8-21.6Q67-23.4 69.05-24.38 71.1-25.35 73.65-25.35L73.65-25.35Q76.4-25.35 78.55-24.1 80.7-22.85 81.92-20.4 83.15-17.95 83.15-14.3L83.15-14.3 83.15 0 79.15 0 79.15-13.85Q79.15-17.75 77.5-19.83 75.85-21.9 72.7-21.9L72.7-21.9Q69.45-21.9 67.62-19.7 65.8-17.5 65.8-13.3L65.8-13.3 65.8 0 62.05 0ZM109.49 0L106.04 0 105.74-4.5Q104.69-2.2 102.64-0.93 100.59 0.35 97.44 0.35L97.44 0.35Q94.74 0.35 92.84-0.5 90.94-1.35 89.92-2.93 88.89-4.5 88.89-6.65L88.89-6.65Q88.89-9.8 91.24-11.83 93.59-13.85 98.04-14.3L98.04-14.3 105.74-15.15 105.74-17.15Q105.74-19.25 104.19-20.53 102.64-21.8 99.99-21.8L99.99-21.8Q97.39-21.8 95.67-20.6 93.94-19.4 93.29-17.15L93.29-17.15 89.89-18.35Q90.89-21.65 93.57-23.5 96.24-25.35 100.09-25.35L100.09-25.35Q104.54-25.35 107.02-23.08 109.49-20.8 109.49-16.9L109.49-16.9 109.49 0ZM105.74-11.15L105.74-11.95 97.99-11.05Q95.49-10.75 94.19-9.68 92.89-8.6 92.89-6.85L92.89-6.85Q92.89-5.1 94.17-4.05 95.44-3 97.84-3L97.84-3Q100.59-3 102.34-4.1 104.09-5.2 104.92-7.08 105.74-8.95 105.74-11.15L105.74-11.15ZM116.79 0L116.79-25 120.24-25 120.49-21.4Q121.59-23.2 123.47-24.28 125.34-25.35 127.94-25.35L127.94-25.35Q130.59-25.35 132.77-24.08 134.94-22.8 136.14-20.3L136.14-20.3Q137.29-22.85 139.64-24.1 141.99-25.35 144.84-25.35L144.84-25.35Q147.64-25.35 149.79-24.13 151.94-22.9 153.14-20.48 154.34-18.05 154.34-14.4L154.34-14.4 154.34 0 150.59 0 150.59-13.95Q150.59-17.85 148.92-19.88 147.24-21.9 144.14-21.9L144.14-21.9Q140.99-21.9 139.14-19.73 137.29-17.55 137.29-13.3L137.29-13.3 137.29 0 133.54 0 133.54-13.95Q133.54-17.85 131.94-19.88 130.34-21.9 127.24-21.9L127.24-21.9Q124.09-21.9 122.32-19.73 120.54-17.55 120.54-13.3L120.54-13.3 120.54 0 116.79 0Z" opacity="1" transform="matrix(1,0,0,1,0,0)" fill="#d579ff" class="wordmark-text-0" data-fill-palette-color="primary" id="text-0"></path></svg></g></svg></g></svg></g></svg></g></svg></g></svg></g></svg></g><g><path d="M0 123.6c0-68.262 55.338-123.6 123.6-123.6 55.676 0 102.754 36.813 118.222 87.425l-2.763 0c-15.378-49.134-61.255-84.786-115.459-84.786-66.805 0-120.961 54.156-120.961 120.961 0 66.805 54.156 120.961 120.961 120.961 54.204 0 100.08-35.652 115.459-84.786l2.763 0c-15.468 50.613-62.546 87.425-118.222 87.425-68.262 0-123.6-55.338-123.6-123.6z" fill="#d579ff" stroke="transparent" data-fill-palette-color="tertiary"></path></g></svg></g><defs></defs></svg><rect width="395.52" height="247.2" fill="none" stroke="none" visibility="hidden"></rect></g></svg></g></svg>