<svg xmlns="http://www.w3.org/2000/svg" version="1.1" xmlns:xlink="http://www.w3.org/1999/xlink" xmlns:svgjs="http://svgjs.dev/svgjs" width="2000" height="1500" viewBox="0 0 2000 1500"><rect width="2000" height="1500" fill="#2e024e"></rect><g transform="matrix(0.49407114624505927,0,0,0.49407114624505927,506.8023067452861,250.4048582995951)"><svg viewBox="0 0 244 247" data-background-color="#2e024e" preserveAspectRatio="xMidYMid meet" height="2024" width="2000" xmlns="http://www.w3.org/2000/svg" xmlns:xlink="http://www.w3.org/1999/xlink"><g id="tight-bounds" transform="matrix(1,0,0,1,-0.21567999999999188,-0.09999999999999432)"><svg viewBox="0 0 244.43135999999998 247.2" height="247.2" width="244.43135999999998"><g><svg></svg></g><g><svg viewBox="0 0 244.43135999999998 247.2" height="247.2" width="244.43135999999998"><g transform="matrix(1,0,0,1,0,71.8324667771632)"><svg viewBox="0 0 244.43135999999998 103.53506644567358" height="103.53506644567358" width="244.43135999999998"><g><svg viewBox="0 0 244.43135999999998 103.53506644567358" height="103.53506644567358" width="244.43135999999998"><g><svg viewBox="0 0 244.43135999999998 103.53506644567358" height="103.53506644567358" width="244.43135999999998"><g><svg viewBox="0 0 244.43135999999998 103.53506644567358" height="103.53506644567358" width="244.43135999999998"><g id="textblocktransform"><svg viewBox="0 0 244.43135999999998 103.53506644567358" height="103.53506644567358" width="244.43135999999998" id="textblock"><g><svg viewBox="0 0 244.43135999999998 66.22886529875984" height="66.22886529875984" width="244.43135999999998"><g transform="matrix(1,0,0,1,0,0)"><svg width="244.43135999999998" viewBox="1.85 -35.5 133.04 36.05" height="66.22886529875984" data-palette-color="#d579ff"><path d="M4.7-8.9Q4.85-7.2 5.98-5.65 7.1-4.1 9.08-3.13 11.05-2.15 13.6-2.15L13.6-2.15Q17.45-2.15 20.03-3.88 22.6-5.6 22.6-9.35L22.6-9.35Q22.6-11.55 21.35-13.03 20.1-14.5 18.25-15.38 16.4-16.25 13.2-17.4L13.2-17.4Q9.75-18.6 7.68-19.63 5.6-20.65 4.17-22.4 2.75-24.15 2.75-26.9L2.75-26.9Q2.75-29.1 4-31.08 5.25-33.05 7.78-34.27 10.3-35.5 14-35.5L14-35.5Q16.45-35.5 18.05-35.15 19.65-34.8 21.3-34L21.3-34 20.45-31.35Q17.6-32.8 14.1-32.8L14.1-32.8Q10.25-32.8 7.95-31.2 5.65-29.6 5.65-26.75L5.65-26.75Q5.65-24.95 6.8-23.73 7.95-22.5 9.63-21.75 11.3-21 14.3-19.95L14.3-19.95Q17.95-18.7 20.2-17.63 22.45-16.55 24.03-14.58 25.6-12.6 25.6-9.6L25.6-9.6Q25.6-5 22.68-2.23 19.75 0.55 13.65 0.55L13.65 0.55Q9.95 0.55 7.33-0.83 4.7-2.2 3.33-4.38 1.95-6.55 1.85-8.9L1.85-8.9 4.7-8.9ZM50.6-9.2Q50.6-5 48.3-2.25 46 0.5 41.35 0.5L41.35 0.5Q36.7 0.5 34.32-2.27 31.95-5.05 31.95-9.2L31.95-9.2 31.95-15.8Q31.95-20.55 34.37-23.08 36.8-25.6 41.35-25.6L41.35-25.6Q45.7-25.6 48.15-22.98 50.6-20.35 50.6-15.8L50.6-15.8 50.6-9.2ZM47.8-15.8Q47.8-19.55 46.07-21.3 44.35-23.05 41.35-23.05L41.35-23.05Q38.25-23.05 36.5-21.3 34.75-19.55 34.75-15.8L34.75-15.8 34.75-8.7Q34.75-5.7 36.52-3.85 38.3-2 41.35-2L41.35-2Q44.45-2 46.12-3.83 47.8-5.65 47.8-8.7L47.8-8.7 47.8-15.8ZM71.15 0L71.15-17.15Q71.15-20.2 69.37-21.58 67.59-22.95 64.8-22.95L64.8-22.95Q63.1-22.95 61.35-22.48 59.6-22 58.25-21.25L58.25-21.25 58.25 0 55.45 0 55.45-35 58.25-35 58.25-23.7Q59.5-24.55 61.25-25.03 63-25.5 64.9-25.5L64.9-25.5Q67.5-25.5 69.65-24.55L69.65-24.55Q71.65-23.65 72.77-21.85 73.9-20.05 73.9-17.3L73.9-17.3 73.9 0 71.15 0ZM97.99 0Q92.59 0.55 90.19 0.55L90.19 0.55Q84.94 0.55 81.84-1.4 78.74-3.35 78.74-8.45L78.74-8.45 78.74-12.6Q78.74-17.55 82.19-19.25L82.19-19.25Q83.84-20.1 86.39-20.1L86.39-20.1Q88.74-20.1 91.14-19.33 93.54-18.55 95.19-17.3L95.19-17.3Q95.19-20.05 93.59-21.68 91.99-23.3 87.44-23.3L87.44-23.3 87.59-25.45Q92.39-25.45 94.67-23.93 96.94-22.4 97.47-20.3 97.99-18.2 97.99-14.9L97.99-14.9 97.99 0ZM95.19-15.15Q93.14-16.1 90.82-16.8 88.49-17.5 86.54-17.5L86.54-17.5Q81.49-17.5 81.49-12.45L81.49-12.45 81.49-8.1Q81.49-4.85 83.74-3.38 85.99-1.9 90.14-1.9L90.14-1.9Q92.29-1.9 95.19-2.3L95.19-2.3 95.19-15.15ZM132.14 0L132.14-17.15Q132.14-20.15 130.57-21.55 128.99-22.95 126.49-22.95L126.49-22.95Q124.54-22.95 122.14-22.1L122.14-22.1 120.29-21.2Q121.14-19.5 121.14-17.3L121.14-17.3 121.14 0 118.39 0 118.39-17.15Q118.39-20.2 116.82-21.58 115.24-22.95 112.69-22.95L112.69-22.95Q111.14-22.95 109.49-22.48 107.84-22 106.49-21.25L106.49-21.25 106.49 0 103.69 0 103.69-25.05 106.49-25.05 106.24-23.45Q109.54-25.4 112.99-25.4L112.99-25.4Q114.79-25.4 116.37-24.8 117.94-24.2 119.04-23.05L119.04-23.05Q119.74-23.45 121.14-24.15L121.14-24.15Q124.09-25.5 126.84-25.5L126.84-25.5Q130.39-25.5 132.64-23.33 134.89-21.15 134.89-17.3L134.89-17.3 134.89 0 132.14 0Z" opacity="1" transform="matrix(1,0,0,1,0,0)" fill="#d579ff" class="wordmark-text-0" data-fill-palette-color="primary" id="text-0"></path></svg></g></svg></g><g transform="matrix(1,0,0,1,0,81.86391090302988)"><svg viewBox="0 0 244.43135999999998 21.6711555426437" height="21.6711555426437" width="244.43135999999998"><g transform="matrix(1,0,0,1,0,0)"><svg width="244.43135999999998" viewBox="0.2 -34.86 470.53000000000003 41.72" height="21.6711555426437" data-palette-color="#d579ff"><path d="M10.25-31.74L10.25 0 6.86 0 6.86-31.74 0.2-31.74 0.2-34.86 16.94-34.86 16.94-31.74 10.25-31.74ZM24.78 0.29L24.78 0.29Q22.04 0.29 20.66-0.93 19.28-2.15 19.28-4.96L19.28-4.96 19.28-23.75 22.41-23.75 22.41-4.69Q22.41-3.49 23.17-2.93 23.92-2.37 25.63-2.37L25.63-2.37Q27.37-2.37 28.67-2.95 29.98-3.54 30.59-4.59L30.59-4.59 30.59-23.75 33.76-23.75 33.76 0 30.59 0 30.59-2.25 29.93-2.25Q28.32 0.29 24.78 0.29ZM41.55-19.19L41.55 0 38.4 0 38.4-23.75 41.55-23.75 41.55-21.53 42.23-21.53Q42.87-22.75 43.92-23.41 44.97-24.07 46.53-24.07L46.53-24.07Q48.87-24.07 50.01-22.84 51.14-21.61 51.14-18.58L51.14-18.58Q51.14-17.92 51.09-17.02 51.04-16.11 50.95-15.41L50.95-15.41 47.92-15.41Q47.97-15.65 47.98-16.26 47.99-16.87 48.01-17.48 48.02-18.09 48.02-18.31L48.02-18.31Q48.02-20.12 47.41-20.76 46.8-21.41 45.45-21.41L45.45-21.41Q42.6-21.41 41.55-19.19L41.55-19.19ZM58.02-19.19L58.02 0 54.88 0 54.88-23.75 58.02-23.75 58.02-21.53 58.78-21.53Q59.54-22.75 60.77-23.41 62-24.07 63.88-24.07L63.88-24.07Q66.64-24.07 67.99-22.86 69.33-21.66 69.33-18.82L69.33-18.82 69.33 0 66.2 0 66.2-19.09Q66.2-20.31 65.43-20.86 64.67-21.41 62.96-21.41L62.96-21.41Q61.25-21.41 59.95-20.83 58.66-20.24 58.02-19.19L58.02-19.19ZM77.53-31.69L77.53-28.17 74.38-28.17 74.38-31.69 77.53-31.69ZM77.53-23.75L77.53 0 74.36 0 74.36-23.75 77.53-23.75ZM85.83-19.19L85.83 0 82.68 0 82.68-23.75 85.83-23.75 85.83-21.53 86.58-21.53Q87.34-22.75 88.57-23.41 89.81-24.07 91.69-24.07L91.69-24.07Q94.45-24.07 95.79-22.86 97.13-21.66 97.13-18.82L97.13-18.82 97.13 0 94.01 0 94.01-19.09Q94.01-20.31 93.24-20.86 92.47-21.41 90.76-21.41L90.76-21.41Q89.05-21.41 87.76-20.83 86.46-20.24 85.83-19.19L85.83-19.19ZM108.26 6.86L108.26 6.86Q104.94 6.86 102.91 6.03 100.89 5.2 100.77 3.42L100.77 3.42Q100.77 3.22 100.74 2.95 100.72 2.69 100.72 2.39L100.72 2.39Q100.82 1.32 101.8 0.66 102.79 0 104.09-0.15L104.09-0.15 104.09-0.76Q101.67-1.27 101.6-2.86L101.6-2.86Q101.57-3.27 101.6-3.69L101.6-3.69Q101.62-4.52 102.37-5.08 103.11-5.64 104.04-5.74L104.04-5.74 104.04-6.35Q101.5-7.45 101.33-11.21L101.33-11.21Q101.25-12.67 101.22-13.76 101.18-14.84 101.21-15.95 101.23-17.07 101.33-18.58L101.33-18.58Q101.45-21.48 103.02-22.78 104.6-24.07 108.07-24.07L108.07-24.07Q110.61-24.07 112.09-23.49 113.58-22.9 114.24-21.66L114.24-21.66 114.93-21.66Q115.1-23.75 118.08-23.75L118.08-23.75 118.08-21.02 117.22-21.02Q115.05-21.02 114.95-18.51L114.95-18.51 114.9-16.58Q114.95-15.16 114.95-14.01 114.95-12.87 114.8-11.21L114.8-11.21Q114.68-8.25 113.14-6.98 111.61-5.71 108.07-5.71L108.07-5.71Q106.02-5.74 105.09-5.4 104.16-5.05 104.16-4.27L104.16-4.27 104.16-4.08Q104.21-3.37 105.19-3.08 106.16-2.78 108.43-2.73L108.43-2.73Q112.07-2.64 114.01-1.7 115.95-0.76 116.12 1.42L116.12 1.42 116.12 2.69Q115.95 4.98 113.78 5.92 111.61 6.86 108.26 6.86ZM108.07-8.47L108.07-8.47Q110.02-8.47 110.84-9.01 111.65-9.55 111.73-10.77L111.73-10.77Q111.85-12.5 111.85-14.81 111.85-17.11 111.73-19.02L111.73-19.02Q111.65-20.31 110.82-20.83 109.99-21.34 108.07-21.34L108.07-21.34Q106.14-21.34 105.31-20.81 104.48-20.29 104.38-18.99L104.38-18.99Q104.11-14.36 104.38-10.82L104.38-10.82Q104.48-9.62 105.33-9.05 106.19-8.47 108.07-8.47ZM108.33 4.27L108.33 4.27Q110.43 4.27 111.76 3.88 113.1 3.49 113.19 2.49L113.19 2.49Q113.22 2.22 113.21 1.99 113.19 1.76 113.19 1.51L113.19 1.51Q113.1 0.46 111.79 0.16 110.48-0.15 108.33-0.2L108.33-0.2Q106.26-0.24 105.03 0.12 103.79 0.49 103.67 1.54L103.67 1.54 103.67 2.49Q103.79 3.56 105.04 3.92 106.28 4.27 108.33 4.27ZM134.57-34.86L134.57 0 131.18 0 131.18-34.86 134.57-34.86ZM145.41 0.29L145.41 0.29Q142.65 0.29 141.31-0.93 139.97-2.15 139.89-4.96L139.89-4.96Q139.8-6.96 139.76-9.35 139.72-11.74 139.76-14.21 139.8-16.67 139.89-18.82L139.89-18.82Q139.97-21.66 141.35-22.86 142.73-24.07 145.46-24.07L145.46-24.07Q147.49-24.07 148.65-23.45 149.81-22.83 150.66-21.53L150.66-21.53 151.3-21.53 151.3-31.69 154.42-31.69 154.42 0 151.3 0 151.3-2.25 150.59-2.25Q149.76-1.03 148.6-0.37 147.44 0.29 145.41 0.29ZM146.32-2.37L146.32-2.37Q150-2.37 151.3-4.59L151.3-4.59 151.3-19.19Q150.03-21.41 146.34-21.41L146.34-21.41Q144.63-21.41 143.86-20.86 143.09-20.31 143.07-19.09L143.07-19.09Q142.92-15.43 142.95-11.66 142.97-7.89 143.07-4.69L143.07-4.69Q143.12-3.49 143.86-2.93 144.61-2.37 146.32-2.37ZM166.36 0.29L166.36 0.29Q162.33 0.29 160.61-0.98 158.89-2.25 158.76-5.13L158.76-5.13Q158.67-6.93 158.63-9.38 158.59-11.82 158.63-14.28 158.67-16.75 158.76-18.58L158.76-18.58Q158.89-21.53 160.66-22.8 162.43-24.07 166.36-24.07L166.36-24.07Q170.07-24.07 171.73-22.83 173.39-21.58 173.56-18.73L173.56-18.73Q173.61-17.87 173.66-15.75 173.71-13.62 173.51-11.23L173.51-11.23 161.82-11.23Q161.82-9.69 161.84-8.11 161.86-6.52 161.94-4.81L161.94-4.81Q161.96-3.47 162.96-2.95 163.96-2.44 166.26-2.44L166.26-2.44Q168.53-2.44 169.46-2.95 170.39-3.47 170.48-4.81L170.48-4.81Q170.56-6.15 170.48-8.47L170.48-8.47 173.51-8.47Q173.63-7.76 173.62-6.82 173.61-5.88 173.56-5.13L173.56-5.13Q173.39-2.25 171.81-0.98 170.24 0.29 166.36 0.29ZM161.82-13.82L161.82-13.82 170.53-13.82Q170.58-15.48 170.58-16.99 170.58-18.51 170.48-19.07L170.48-19.07Q170.39-20.29 169.43-20.81 168.48-21.34 166.36-21.34L166.36-21.34Q163.99-21.34 162.98-20.81 161.96-20.29 161.94-19.07L161.94-19.07Q161.86-17.65 161.83-16.36 161.79-15.06 161.82-13.82ZM183.18 0.27L183.18 0.27Q180.2 0.27 178.77-0.9 177.34-2.08 177.1-4.57L177.1-4.57Q177.07-5.05 177.04-5.54 177-6.03 177.05-6.49L177.05-6.49Q177.22-8.67 178.41-10.14 179.61-11.62 182.96-12.84L182.96-12.84Q184.32-13.33 185.84-13.72 187.35-14.11 188.84-14.48L188.84-14.48 188.84-18.99Q188.84-20.19 187.94-20.76 187.03-21.34 184.79-21.34L184.79-21.34Q182.83-21.34 181.82-20.85 180.81-20.36 180.71-19.07L180.71-19.07Q180.66-18.46 180.66-17.32 180.66-16.19 180.71-15.41L180.71-15.41 177.66-15.41Q177.61-16.02 177.56-16.99 177.51-17.97 177.58-18.73L177.58-18.73Q177.71-21.56 179.43-22.81 181.15-24.07 184.91-24.07L184.91-24.07Q188.84-24.07 190.37-22.71 191.89-21.34 191.92-18.21L191.92-18.21 191.92 0 188.84 0 188.84-2.25 188.16-2.25Q187.55-1.03 186.41-0.38 185.28 0.27 183.18 0.27ZM183.96-2.37L183.96-2.37Q187.47-2.37 188.82-4.47L188.82-4.47 188.82-11.87Q187.64-11.62 186.41-11.29 185.18-10.96 183.52-10.4L183.52-10.4Q181.54-9.67 180.88-8.72 180.22-7.76 180.12-6.49L180.12-6.49Q180.15-6.13 180.16-5.7 180.17-5.27 180.22-4.81L180.22-4.81Q180.39-3.64 181.39-3 182.39-2.37 183.96-2.37ZM202.95 0.29L202.95 0.29Q199.02 0.29 197.49-0.98 195.97-2.25 195.84-5.13L195.84-5.13Q195.8-5.88 195.78-6.82 195.77-7.76 195.87-8.47L195.87-8.47 198.72-8.47Q198.68-7.35 198.69-6.41 198.7-5.47 198.72-4.81L198.72-4.81Q198.75-3.47 199.66-2.95 200.58-2.44 202.95-2.44L202.95-2.44Q205.37-2.44 206.35-2.95 207.34-3.47 207.42-4.81L207.42-4.81Q207.49-5.64 207.51-6.04 207.54-6.45 207.51-7.2L207.51-7.2Q207.44-8.45 206.85-9.13 206.27-9.81 204.32-10.11L204.32-10.11 201.46-10.77Q199.26-11.23 198.07-11.94 196.87-12.65 196.38-13.78 195.89-14.92 195.8-16.65L195.8-16.65Q195.72-17.53 195.92-18.58L195.92-18.58Q195.97-21.53 197.52-22.8 199.07-24.07 203.17-24.07L203.17-24.07Q207.1-24.07 208.62-22.83 210.15-21.58 210.3-18.73L210.3-18.73Q210.3-17.99 210.28-17.05 210.27-16.11 210.2-15.41L210.2-15.41 207.25-15.41Q207.37-16.26 207.36-17.36 207.34-18.46 207.29-19.07L207.29-19.07Q207.27-20.36 206.4-20.85 205.54-21.34 203.17-21.34L203.17-21.34Q200.78-21.34 199.91-20.85 199.04-20.36 198.94-19.07L198.94-19.07Q198.92-18.46 198.87-18.05 198.82-17.65 198.85-16.94L198.85-16.94Q198.92-16.09 199.1-15.43 199.29-14.77 199.93-14.34 200.58-13.92 202.05-13.7L202.05-13.7 204.78-13.13Q207.76-12.52 209.13-11.24 210.49-9.96 210.49-7.37L210.49-7.37Q210.49-6.84 210.48-6.23 210.47-5.62 210.42-5.05L210.42-5.05Q210.25-2.2 208.62-0.95 207 0.29 202.95 0.29ZM228.51-34.86L228.51 0 225.11 0 225.11-34.86 228.51-34.86ZM237.24-19.19L237.24 0 234.09 0 234.09-23.75 237.24-23.75 237.24-21.53 238-21.53Q238.76-22.75 239.99-23.41 241.22-24.07 243.1-24.07L243.1-24.07Q245.86-24.07 247.2-22.86 248.55-21.66 248.55-18.82L248.55-18.82 248.55 0 245.42 0 245.42-19.09Q245.42-20.31 244.65-20.86 243.88-21.41 242.17-21.41L242.17-21.41Q240.47-21.41 239.17-20.83 237.88-20.24 237.24-19.19L237.24-19.19ZM260.48 0.29L260.48 0.29Q256.67 0.29 255.34-0.98 254.01-2.25 254.01-5.13L254.01-5.13 254.01-21.02 251.67-21.02 251.67-23.75 254.09-23.75 254.09-30.49 257.19-30.49 257.19-23.75 262.56-23.75 262.56-21.02 257.16-21.02 257.16-4.79Q257.16-3.44 257.72-2.93 258.29-2.42 260.56-2.42L260.56-2.42Q261.48-2.42 261.98-2.45 262.48-2.49 263.14-2.51L263.14-2.51 263.14 0.1Q262.56 0.2 261.87 0.24 261.19 0.29 260.48 0.29ZM272.88 0.29L272.88 0.29Q268.9 0.29 267.27-1.07 265.63-2.44 265.51-5.62L265.51-5.62Q265.36-7.42 265.31-9.63 265.27-11.84 265.31-14.09 265.36-16.33 265.51-18.16L265.51-18.16Q265.63-21.34 267.28-22.71 268.93-24.07 272.88-24.07L272.88-24.07Q276.89-24.07 278.49-22.71 280.08-21.34 280.21-18.16L280.21-18.16Q280.35-16.36 280.4-14.15 280.45-11.94 280.4-9.7 280.35-7.47 280.21-5.62L280.21-5.62Q280.08-2.47 278.49-1.09 276.89 0.29 272.88 0.29ZM272.88-2.44L272.88-2.44Q275.13-2.44 276.08-2.99 277.03-3.54 277.11-4.81L277.11-4.81Q277.35-8.62 277.35-11.89 277.35-15.16 277.11-18.97L277.11-18.97Q277.03-20.26 276.1-20.8 275.18-21.34 272.88-21.34L272.88-21.34Q270.59-21.34 269.65-20.8 268.71-20.26 268.63-18.97L268.63-18.97Q268.41-15.16 268.4-11.88 268.39-8.59 268.63-4.81L268.63-4.81Q268.68-3.54 269.67-2.99 270.66-2.44 272.88-2.44ZM298.78-34.86L298.78 0 295.39 0 295.39-34.86 298.78-34.86ZM307.52-19.19L307.52 0 304.37 0 304.37-23.75 307.52-23.75 307.52-21.53 308.28-21.53Q309.03-22.75 310.26-23.41 311.5-24.07 313.38-24.07L313.38-24.07Q316.14-24.07 317.48-22.86 318.82-21.66 318.82-18.82L318.82-18.82 318.82 0 315.7 0 315.7-19.09Q315.7-20.31 314.93-20.86 314.16-21.41 312.45-21.41L312.45-21.41Q310.74-21.41 309.45-20.83 308.15-20.24 307.52-19.19L307.52-19.19ZM326.41-19.19L326.41 0 323.26 0 323.26-23.75 326.41-23.75 326.41-21.53 327.17-21.53Q327.93-22.75 329.16-23.41 330.39-24.07 332.27-24.07L332.27-24.07Q335.03-24.07 336.37-22.86 337.72-21.66 337.72-18.82L337.72-18.82 337.72 0 334.59 0 334.59-19.09Q334.59-20.31 333.82-20.86 333.05-21.41 331.34-21.41L331.34-21.41Q329.64-21.41 328.34-20.83 327.05-20.24 326.41-19.19L326.41-19.19ZM349.36 0.29L349.36 0.29Q345.38 0.29 343.74-1.07 342.11-2.44 341.99-5.62L341.99-5.62Q341.84-7.42 341.79-9.63 341.74-11.84 341.79-14.09 341.84-16.33 341.99-18.16L341.99-18.16Q342.11-21.34 343.76-22.71 345.4-24.07 349.36-24.07L349.36-24.07Q353.36-24.07 354.96-22.71 356.56-21.34 356.68-18.16L356.68-18.16Q356.83-16.36 356.88-14.15 356.93-11.94 356.88-9.7 356.83-7.47 356.68-5.62L356.68-5.62Q356.56-2.47 354.96-1.09 353.36 0.29 349.36 0.29ZM349.36-2.44L349.36-2.44Q351.61-2.44 352.56-2.99 353.51-3.54 353.58-4.81L353.58-4.81Q353.83-8.62 353.83-11.89 353.83-15.16 353.58-18.97L353.58-18.97Q353.51-20.26 352.58-20.8 351.65-21.34 349.36-21.34L349.36-21.34Q347.06-21.34 346.12-20.8 345.18-20.26 345.11-18.97L345.11-18.97Q344.89-15.16 344.88-11.88 344.87-8.59 345.11-4.81L345.11-4.81Q345.16-3.54 346.15-2.99 347.14-2.44 349.36-2.44ZM375.43-23.75L370.67 0 364.1 0 359.59-23.75 362.86-23.75 364.71-11.82 366.45-2.71 368.33-2.71 370.16-11.82 372.13-23.75 375.43-23.75ZM383.97 0.27L383.97 0.27Q380.99 0.27 379.57-0.9 378.14-2.08 377.89-4.57L377.89-4.57Q377.87-5.05 377.83-5.54 377.8-6.03 377.85-6.49L377.85-6.49Q378.02-8.67 379.21-10.14 380.41-11.62 383.75-12.84L383.75-12.84Q385.12-13.33 386.63-13.72 388.15-14.11 389.64-14.48L389.64-14.48 389.64-18.99Q389.64-20.19 388.73-20.76 387.83-21.34 385.58-21.34L385.58-21.34Q383.63-21.34 382.62-20.85 381.61-20.36 381.51-19.07L381.51-19.07Q381.46-18.46 381.46-17.32 381.46-16.19 381.51-15.41L381.51-15.41 378.46-15.41Q378.41-16.02 378.36-16.99 378.31-17.97 378.38-18.73L378.38-18.73Q378.5-21.56 380.23-22.81 381.95-24.07 385.71-24.07L385.71-24.07Q389.64-24.07 391.16-22.71 392.69-21.34 392.71-18.21L392.71-18.21 392.71 0 389.64 0 389.64-2.25 388.95-2.25Q388.34-1.03 387.21-0.38 386.07 0.27 383.97 0.27ZM384.75-2.37L384.75-2.37Q388.27-2.37 389.61-4.47L389.61-4.47 389.61-11.87Q388.44-11.62 387.21-11.29 385.98-10.96 384.32-10.4L384.32-10.4Q382.34-9.67 381.68-8.72 381.02-7.76 380.92-6.49L380.92-6.49Q380.95-6.13 380.96-5.7 380.97-5.27 381.02-4.81L381.02-4.81Q381.19-3.64 382.19-3 383.19-2.37 384.75-2.37ZM404.7 0.29L404.7 0.29Q400.89 0.29 399.56-0.98 398.23-2.25 398.23-5.13L398.23-5.13 398.23-21.02 395.88-21.02 395.88-23.75 398.3-23.75 398.3-30.49 401.4-30.49 401.4-23.75 406.77-23.75 406.77-21.02 401.38-21.02 401.38-4.79Q401.38-3.44 401.94-2.93 402.5-2.42 404.77-2.42L404.77-2.42Q405.7-2.42 406.2-2.45 406.7-2.49 407.36-2.51L407.36-2.51 407.36 0.1Q406.77 0.2 406.09 0.24 405.41 0.29 404.7 0.29ZM413.66-31.69L413.66-28.17 410.51-28.17 410.51-31.69 413.66-31.69ZM413.66-23.75L413.66 0 410.48 0 410.48-23.75 413.66-23.75ZM426.01 0.29L426.01 0.29Q422.03 0.29 420.39-1.07 418.76-2.44 418.63-5.62L418.63-5.62Q418.49-7.42 418.44-9.63 418.39-11.84 418.44-14.09 418.49-16.33 418.63-18.16L418.63-18.16Q418.76-21.34 420.4-22.71 422.05-24.07 426.01-24.07L426.01-24.07Q430.01-24.07 431.61-22.71 433.21-21.34 433.33-18.16L433.33-18.16Q433.48-16.36 433.53-14.15 433.58-11.94 433.53-9.7 433.48-7.47 433.33-5.62L433.33-5.62Q433.21-2.47 431.61-1.09 430.01 0.29 426.01 0.29ZM426.01-2.44L426.01-2.44Q428.25-2.44 429.2-2.99 430.16-3.54 430.23-4.81L430.23-4.81Q430.47-8.62 430.47-11.89 430.47-15.16 430.23-18.97L430.23-18.97Q430.16-20.26 429.23-20.8 428.3-21.34 426.01-21.34L426.01-21.34Q423.71-21.34 422.77-20.8 421.83-20.26 421.76-18.97L421.76-18.97Q421.54-15.16 421.53-11.88 421.51-8.59 421.76-4.81L421.76-4.81Q421.81-3.54 422.8-2.99 423.79-2.44 426.01-2.44ZM440.9-19.19L440.9 0 437.75 0 437.75-23.75 440.9-23.75 440.9-21.53 441.65-21.53Q442.41-22.75 443.64-23.41 444.88-24.07 446.76-24.07L446.76-24.07Q449.51-24.07 450.86-22.86 452.2-21.66 452.2-18.82L452.2-18.82 452.2 0 449.08 0 449.08-19.09Q449.08-20.31 448.31-20.86 447.54-21.41 445.83-21.41L445.83-21.41Q444.12-21.41 442.83-20.83 441.53-20.24 440.9-19.19L440.9-19.19ZM463.18 0.29L463.18 0.29Q459.25 0.29 457.73-0.98 456.2-2.25 456.08-5.13L456.08-5.13Q456.03-5.88 456.02-6.82 456.01-7.76 456.1-8.47L456.1-8.47 458.96-8.47Q458.91-7.35 458.92-6.41 458.94-5.47 458.96-4.81L458.96-4.81Q458.99-3.47 459.9-2.95 460.82-2.44 463.18-2.44L463.18-2.44Q465.6-2.44 466.59-2.95 467.58-3.47 467.65-4.81L467.65-4.81Q467.73-5.64 467.75-6.04 467.77-6.45 467.75-7.2L467.75-7.2Q467.68-8.45 467.09-9.13 466.5-9.81 464.55-10.11L464.55-10.11 461.7-10.77Q459.5-11.23 458.3-11.94 457.11-12.65 456.62-13.78 456.13-14.92 456.03-16.65L456.03-16.65Q455.96-17.53 456.15-18.58L456.15-18.58Q456.2-21.53 457.75-22.8 459.3-24.07 463.4-24.07L463.4-24.07Q467.33-24.07 468.86-22.83 470.39-21.58 470.53-18.73L470.53-18.73Q470.53-17.99 470.52-17.05 470.51-16.11 470.44-15.41L470.44-15.41 467.48-15.41Q467.6-16.26 467.59-17.36 467.58-18.46 467.53-19.07L467.53-19.07Q467.51-20.36 466.64-20.85 465.77-21.34 463.4-21.34L463.4-21.34Q461.01-21.34 460.14-20.85 459.28-20.36 459.18-19.07L459.18-19.07Q459.16-18.46 459.11-18.05 459.06-17.65 459.08-16.94L459.08-16.94Q459.16-16.09 459.34-15.43 459.52-14.77 460.17-14.34 460.82-13.92 462.28-13.7L462.28-13.7 465.02-13.13Q467.99-12.52 469.36-11.24 470.73-9.96 470.73-7.37L470.73-7.37Q470.73-6.84 470.72-6.23 470.7-5.62 470.66-5.05L470.66-5.05Q470.48-2.2 468.86-0.95 467.24 0.29 463.18 0.29Z" opacity="1" transform="matrix(1,0,0,1,0,0)" fill="#d579ff" class="slogan-text-1" data-fill-palette-color="secondary" id="text-1"></path></svg></g></svg></g></svg></g></svg></g><g></g></svg></g></svg></g></svg></g><path d="M0 65.832L0 1 244.431 1 244.431 65.832 238.459 65.832 238.459 6.973 5.973 6.973 5.973 65.832 0 65.832M0 181.368L0 246.2 244.431 246.2 244.431 181.368 238.459 181.368 238.459 240.227 5.973 240.227 5.973 181.368 0 181.368" fill="#d579ff" stroke="transparent" data-fill-palette-color="tertiary"></path></svg></g><defs></defs></svg><rect width="244.43135999999998" height="247.2" fill="none" stroke="none" visibility="hidden"></rect></g></svg></g></svg>