<svg xmlns="http://www.w3.org/2000/svg" version="1.1" xmlns:xlink="http://www.w3.org/1999/xlink" xmlns:svgjs="http://svgjs.dev/svgjs" width="2000" height="1500" viewBox="0 0 2000 1500"><rect width="2000" height="1500" fill="#000000"></rect><g transform="matrix(0.75,0,0,0.75,249.090909090909,282.7536437246963)"><svg viewBox="0 0 396 247" data-background-color="#000000" preserveAspectRatio="xMidYMid meet" height="1247" width="2000" xmlns="http://www.w3.org/2000/svg" xmlns:xlink="http://www.w3.org/1999/xlink"><g id="tight-bounds" transform="matrix(1,0,0,1,0.2400000000000091,-0.09999999999999432)"><svg viewBox="0 0 395.52 247.2" height="247.2" width="395.52"><rect width="395.52" height="247.2" fill="url(#2203be08-0988-49ed-8c06-17150e7abf29)" mask="url(#862f56e9-01b8-4e28-a727-12ed1162c8da)" data-fill-palette-color="tertiary"></rect><g><svg></svg></g><g><svg viewBox="0 0 395.52 247.2" height="247.2" width="395.52"><g transform="matrix(1,0,0,1,75.54432,87.49528745980707)"><svg viewBox="0 0 244.43135999999998 72.20942508038584" height="72.20942508038584" width="244.43135999999998"><g><svg viewBox="0 0 244.43135999999998 72.20942508038584" height="72.20942508038584" width="244.43135999999998"><g><svg viewBox="0 0 244.43135999999998 72.20942508038584" height="72.20942508038584" width="244.43135999999998"><g><svg viewBox="0 0 244.43135999999998 72.20942508038584" height="72.20942508038584" width="244.43135999999998"><g id="textblocktransform"><svg viewBox="0 0 244.43135999999998 72.20942508038584" height="72.20942508038584" width="244.43135999999998" id="textblock"><g><svg viewBox="0 0 244.43135999999998 72.20942508038584" height="72.20942508038584" width="244.43135999999998"><g transform="matrix(1,0,0,1,0,0)"><svg width="244.43135999999998" viewBox="1.75 -36 124.39 36.75" height="72.20942508038584" data-palette-color="url(#1db84e47-4545-4f2d-be7b-f259b89d4a09)"></svg></g></svg></g></svg></g></svg></g></svg></g></svg></g></svg></g><path d="M188.173 81.495L188.173 24.975 385.424 24.975 385.424 222.225 188.173 222.225 188.173 165.705 194.685 165.705 194.685 215.713 378.912 215.713 378.912 31.487 194.685 31.487 194.685 81.495Z" fill="url(#2203be08-0988-49ed-8c06-17150e7abf29)" stroke="transparent" data-fill-palette-color="tertiary"></path></svg></g><defs></defs><mask id="c2a4eb24-9532-4fb6-a116-be48cde3898d"><g id="SvgjsG1118"><svg viewBox="0 0 395.52 247.2" height="247.2" width="395.52"><g><svg></svg></g><g><svg viewBox="0 0 395.52 247.2" height="247.2" width="395.52"><g transform="matrix(1,0,0,1,75.54432,87.49528745980707)"><svg viewBox="0 0 244.43135999999998 72.20942508038584" height="72.20942508038584" width="244.43135999999998"><g><svg viewBox="0 0 244.43135999999998 72.20942508038584" height="72.20942508038584" width="244.43135999999998"><g><svg viewBox="0 0 244.43135999999998 72.20942508038584" height="72.20942508038584" width="244.43135999999998"><g><svg viewBox="0 0 244.43135999999998 72.20942508038584" height="72.20942508038584" width="244.43135999999998"><g id="SvgjsG1117"><svg viewBox="0 0 244.43135999999998 72.20942508038584" height="72.20942508038584" width="244.43135999999998" id="SvgjsSvg1116"><g><svg viewBox="0 0 244.43135999999998 72.20942508038584" height="72.20942508038584" width="244.43135999999998"><g transform="matrix(1,0,0,1,0,0)"><svg width="244.43135999999998" viewBox="1.75 -36 124.39 36.75" height="72.20942508038584" data-palette-color="url(#1db84e47-4545-4f2d-be7b-f259b89d4a09)"><path d="M21.8-7.9L17.25-7.9Q17.25-9.75 16.2-11.18 15.15-12.6 13.5-13.85 11.85-15.1 9.98-16.4 8.1-17.7 6.45-19.25 4.8-20.8 3.75-22.78 2.7-24.75 2.7-27.35L2.7-27.35 7.25-27.35Q7.25-25.55 8.3-24.13 9.35-22.7 11-21.43 12.65-20.15 14.53-18.85 16.4-17.55 18.05-16.03 19.7-14.5 20.75-12.53 21.8-10.55 21.8-7.9L21.8-7.9ZM7.25-27.25L2.7-27.25Q2.7-30 3.95-31.95 5.2-33.9 7.45-34.95 9.7-36 12.6-36L12.6-36 12.6-32.1Q10.1-32.1 8.68-30.8 7.25-29.5 7.25-27.25L7.25-27.25ZM17.25-8L21.8-8Q21.8-5.3 20.55-3.33 19.3-1.35 17.07-0.3 14.85 0.75 11.9 0.75L11.9 0.75 11.9-3.2Q14.4-3.2 15.83-4.48 17.25-5.75 17.25-8L17.25-8ZM21.55-28.55L17.3-27.7Q17.05-29.95 15.73-31.03 14.4-32.1 12.6-32.1L12.6-32.1 12.6-36Q14.95-36 16.85-35.05 18.75-34.1 20-32.45 21.25-30.8 21.55-28.55L21.55-28.55ZM1.75-9.05L5.9-9.9Q6.2-6.75 7.78-4.98 9.35-3.2 11.9-3.2L11.9-3.2 11.9 0.75Q7.65 0.75 4.98-1.85 2.3-4.45 1.75-9.05L1.75-9.05ZM43.95-8.95L39.4-8.95 39.4-16.3 43.95-16.3 43.95-8.95ZM29.9-8.95L25.35-8.95 25.35-16.3 29.9-16.3 29.9-8.95ZM34.8-22.05L34.5-22.05 34.5-26 34.8-26 34.8-22.05ZM34.8 0.75L34.5 0.75 34.5-3.2 34.8-3.2 34.8 0.75ZM29.9-16.25L25.35-16.25Q25.35-19.05 26.57-21.25 27.8-23.45 29.87-24.73 31.95-26 34.6-26L34.6-26 34.6-22.05Q32.4-22.05 31.15-20.55 29.9-19.05 29.9-16.25L29.9-16.25ZM43.95-16.25L43.95-16.25 39.4-16.25Q39.4-19.05 38.17-20.55 36.95-22.05 34.7-22.05L34.7-22.05 34.7-26Q37.35-26 39.42-24.73 41.5-23.45 42.72-21.25 43.95-19.05 43.95-16.25ZM25.35-9L25.35-9 29.9-9Q29.9-6.25 31.15-4.73 32.4-3.2 34.6-3.2L34.6-3.2 34.6 0.75Q31.95 0.75 29.87-0.53 27.8-1.8 26.57-4 25.35-6.2 25.35-9ZM39.4-9L43.95-9Q43.95-6.2 42.72-4 41.5-1.8 39.42-0.53 37.35 0.75 34.7 0.75L34.7 0.75 34.7-3.2Q36.95-3.2 38.17-4.73 39.4-6.25 39.4-9L39.4-9ZM53.15 0L48.6 0 48.6-25.25 53.15-25.25 53.15 0ZM67.2 0L62.65 0 62.65-17.2 67.2-17.2 67.2 0ZM67.2-17.2L62.65-17.2Q62.65-19.3 61.35-20.63 60.05-21.95 58-21.95L58-21.95 59.15-26Q61.45-26 63.27-24.85 65.09-23.7 66.15-21.7 67.2-19.7 67.2-17.2L67.2-17.2ZM53.15-17.1L51.15-17.1Q51.15-19.65 52.2-21.68 53.25-23.7 55.05-24.85 56.85-26 59.15-26L59.15-26 58-21.95Q55.85-21.95 54.5-20.6 53.15-19.25 53.15-17.1L53.15-17.1ZM53.15 0L48.6 0 48.6-36 53.15-36 53.15 0ZM90.39 0L85.84 0 85.84-17.2 90.39-17.2 90.39 0ZM79.74 0.75L79.74 0.75 80.09-3Q81.89-3 83.17-3.9 84.44-4.8 85.14-6.55 85.84-8.3 85.84-10.7L85.84-10.7 88.09-10.8Q88.09-7.4 86.99-4.8 85.89-2.2 84.02-0.73 82.14 0.75 79.74 0.75ZM80.09-3L79.74 0.75Q77.49 0.75 75.64-0.3 73.79-1.35 72.69-3.18 71.59-5 71.59-7.25L71.59-7.25 75.89-7.4Q75.89-5.5 77.17-4.25 78.44-3 80.09-3L80.09-3ZM75.89-7.4L71.59-7.25Q71.59-9.6 72.77-11.38 73.94-13.15 75.94-14.2 77.94-15.25 80.49-15.25L80.49-15.25 80.74-11.75Q78.64-11.75 77.27-10.53 75.89-9.3 75.89-7.4L75.89-7.4ZM88.19-11.75L80.74-11.75 80.49-15.25 88.19-15.25 88.19-11.75ZM88.09-10.8L85.84-10.7 85.84-17.15 88.09-17.15 88.09-10.8ZM90.39-17.1L90.39-17.1 85.84-17.1Q85.84-19.3 84.52-20.7 83.19-22.1 81.09-22.1L81.09-22.1 81.09-26Q83.79-26 85.87-24.85 87.94-23.7 89.17-21.68 90.39-19.65 90.39-17.1ZM76.39-17.7L76.39-17.7 72.19-18.55Q72.49-20.8 73.72-22.45 74.94-24.1 76.87-25.05 78.79-26 81.14-26L81.14-26 81.14-22.1Q79.29-22.1 77.97-21.03 76.64-19.95 76.39-17.7ZM100.09 0L95.54 0 95.54-25.25 100.09-25.25 100.09 0ZM113.14 0L108.59 0 108.59-17.2 113.14-17.2 113.14 0ZM100.09-17.1L98.04-17.1Q98.04-19.65 99.02-21.68 99.99-23.7 101.69-24.85 103.39-26 105.49-26L105.49-26 104.34-21.95Q102.54-21.95 101.32-20.6 100.09-19.25 100.09-17.1L100.09-17.1ZM113.14-17.2L108.59-17.2Q108.59-19.3 107.39-20.63 106.19-21.95 104.34-21.95L104.34-21.95 105.49-26Q107.69-26 109.42-24.85 111.14-23.7 112.14-21.73 113.14-19.75 113.14-17.2L113.14-17.2ZM126.14 0L121.59 0 121.59-17.2 126.14-17.2 126.14 0ZM113.14-17.1L111.09-17.1Q111.09-19.65 112.07-21.68 113.04-23.7 114.72-24.85 116.39-26 118.49-26L118.49-26 117.34-21.95Q115.54-21.95 114.34-20.6 113.14-19.25 113.14-17.1L113.14-17.1ZM126.14-17.2L121.59-17.2Q121.59-19.3 120.42-20.63 119.24-21.95 117.34-21.95L117.34-21.95 118.49-26Q120.69-26 122.42-24.85 124.14-23.7 125.14-21.73 126.14-19.75 126.14-17.2L126.14-17.2Z" opacity="1" transform="matrix(1,0,0,1,0,0)" fill="white" class="wordmark-text-0" id="SvgjsPath1115"></path></svg></g></svg></g></svg></g></svg></g></svg></g></svg></g></svg></g><path d="M188.173 81.495L188.173 24.975 385.424 24.975 385.424 222.225 188.173 222.225 188.173 165.705 194.685 165.705 194.685 215.713 378.912 215.713 378.912 31.487 194.685 31.487 194.685 81.495Z" fill="black" stroke="transparent"></path></svg></g><defs><mask></mask></defs></svg><rect width="395.52" height="247.2" fill="black" stroke="none" visibility="hidden"></rect></g></mask><linearGradient x1="0" x2="1" y1="0.548" y2="0.55" id="1db84e47-4545-4f2d-be7b-f259b89d4a09"><stop stop-color="#ff6cab" offset="0"></stop><stop stop-color="#7366ff" offset="1"></stop></linearGradient><rect width="395.52" height="247.2" fill="url(#1db84e47-4545-4f2d-be7b-f259b89d4a09)" mask="url(#c2a4eb24-9532-4fb6-a116-be48cde3898d)" data-fill-palette-color="primary"></rect><mask id="862f56e9-01b8-4e28-a727-12ed1162c8da"><g id="SvgjsG1141"><svg viewBox="0 0 395.52 247.2" height="247.2" width="395.52"><g><svg></svg></g><g><svg viewBox="0 0 395.52 247.2" height="247.2" width="395.52"><g transform="matrix(1,0,0,1,75.54432,87.49528745980707)"><svg viewBox="0 0 244.43135999999998 72.20942508038584" height="72.20942508038584" width="244.43135999999998"><g><svg viewBox="0 0 244.43135999999998 72.20942508038584" height="72.20942508038584" width="244.43135999999998"><g><svg viewBox="0 0 244.43135999999998 72.20942508038584" height="72.20942508038584" width="244.43135999999998"><g><svg viewBox="0 0 244.43135999999998 72.20942508038584" height="72.20942508038584" width="244.43135999999998"><g id="SvgjsG1140"><svg viewBox="0 0 244.43135999999998 72.20942508038584" height="72.20942508038584" width="244.43135999999998" id="SvgjsSvg1139"><g><svg viewBox="0 0 244.43135999999998 72.20942508038584" height="72.20942508038584" width="244.43135999999998"><g transform="matrix(1,0,0,1,0,0)"><svg width="244.43135999999998" viewBox="1.75 -36 124.39 36.75" height="72.20942508038584" data-palette-color="url(#1db84e47-4545-4f2d-be7b-f259b89d4a09)"></svg></g></svg></g></svg></g></svg></g></svg></g></svg></g></svg></g><path d="M188.173 81.495L188.173 24.975 385.424 24.975 385.424 222.225 188.173 222.225 188.173 165.705 194.685 165.705 194.685 215.713 378.912 215.713 378.912 31.487 194.685 31.487 194.685 81.495Z" fill="white" stroke="transparent"></path></svg></g><defs><mask></mask></defs><mask><g id="SvgjsG1138"><svg viewBox="0 0 395.52 247.2" height="247.2" width="395.52"><g><svg></svg></g><g><svg viewBox="0 0 395.52 247.2" height="247.2" width="395.52"><g transform="matrix(1,0,0,1,75.54432,87.49528745980707)"><svg viewBox="0 0 244.43135999999998 72.20942508038584" height="72.20942508038584" width="244.43135999999998"><g><svg viewBox="0 0 244.43135999999998 72.20942508038584" height="72.20942508038584" width="244.43135999999998"><g><svg viewBox="0 0 244.43135999999998 72.20942508038584" height="72.20942508038584" width="244.43135999999998"><g><svg viewBox="0 0 244.43135999999998 72.20942508038584" height="72.20942508038584" width="244.43135999999998"><g id="SvgjsG1137"><svg viewBox="0 0 244.43135999999998 72.20942508038584" height="72.20942508038584" width="244.43135999999998" id="SvgjsSvg1136"><g><svg viewBox="0 0 244.43135999999998 72.20942508038584" height="72.20942508038584" width="244.43135999999998"><g transform="matrix(1,0,0,1,0,0)"><svg width="244.43135999999998" viewBox="1.75 -36 124.39 36.75" height="72.20942508038584" data-palette-color="url(#1db84e47-4545-4f2d-be7b-f259b89d4a09)"><path d="M21.8-7.9L17.25-7.9Q17.25-9.75 16.2-11.18 15.15-12.6 13.5-13.85 11.85-15.1 9.98-16.4 8.1-17.7 6.45-19.25 4.8-20.8 3.75-22.78 2.7-24.75 2.7-27.35L2.7-27.35 7.25-27.35Q7.25-25.55 8.3-24.13 9.35-22.7 11-21.43 12.65-20.15 14.53-18.85 16.4-17.55 18.05-16.03 19.7-14.5 20.75-12.53 21.8-10.55 21.8-7.9L21.8-7.9ZM7.25-27.25L2.7-27.25Q2.7-30 3.95-31.95 5.2-33.9 7.45-34.95 9.7-36 12.6-36L12.6-36 12.6-32.1Q10.1-32.1 8.68-30.8 7.25-29.5 7.25-27.25L7.25-27.25ZM17.25-8L21.8-8Q21.8-5.3 20.55-3.33 19.3-1.35 17.07-0.3 14.85 0.75 11.9 0.75L11.9 0.75 11.9-3.2Q14.4-3.2 15.83-4.48 17.25-5.75 17.25-8L17.25-8ZM21.55-28.55L17.3-27.7Q17.05-29.95 15.73-31.03 14.4-32.1 12.6-32.1L12.6-32.1 12.6-36Q14.95-36 16.85-35.05 18.75-34.1 20-32.45 21.25-30.8 21.55-28.55L21.55-28.55ZM1.75-9.05L5.9-9.9Q6.2-6.75 7.78-4.98 9.35-3.2 11.9-3.2L11.9-3.2 11.9 0.75Q7.65 0.75 4.98-1.85 2.3-4.45 1.75-9.05L1.75-9.05ZM43.95-8.95L39.4-8.95 39.4-16.3 43.95-16.3 43.95-8.95ZM29.9-8.95L25.35-8.95 25.35-16.3 29.9-16.3 29.9-8.95ZM34.8-22.05L34.5-22.05 34.5-26 34.8-26 34.8-22.05ZM34.8 0.75L34.5 0.75 34.5-3.2 34.8-3.2 34.8 0.75ZM29.9-16.25L25.35-16.25Q25.35-19.05 26.57-21.25 27.8-23.45 29.87-24.73 31.95-26 34.6-26L34.6-26 34.6-22.05Q32.4-22.05 31.15-20.55 29.9-19.05 29.9-16.25L29.9-16.25ZM43.95-16.25L43.95-16.25 39.4-16.25Q39.4-19.05 38.17-20.55 36.95-22.05 34.7-22.05L34.7-22.05 34.7-26Q37.35-26 39.42-24.73 41.5-23.45 42.72-21.25 43.95-19.05 43.95-16.25ZM25.35-9L25.35-9 29.9-9Q29.9-6.25 31.15-4.73 32.4-3.2 34.6-3.2L34.6-3.2 34.6 0.75Q31.95 0.75 29.87-0.53 27.8-1.8 26.57-4 25.35-6.2 25.35-9ZM39.4-9L43.95-9Q43.95-6.2 42.72-4 41.5-1.8 39.42-0.53 37.35 0.75 34.7 0.75L34.7 0.75 34.7-3.2Q36.95-3.2 38.17-4.73 39.4-6.25 39.4-9L39.4-9ZM53.15 0L48.6 0 48.6-25.25 53.15-25.25 53.15 0ZM67.2 0L62.65 0 62.65-17.2 67.2-17.2 67.2 0ZM67.2-17.2L62.65-17.2Q62.65-19.3 61.35-20.63 60.05-21.95 58-21.95L58-21.95 59.15-26Q61.45-26 63.27-24.85 65.09-23.7 66.15-21.7 67.2-19.7 67.2-17.2L67.2-17.2ZM53.15-17.1L51.15-17.1Q51.15-19.65 52.2-21.68 53.25-23.7 55.05-24.85 56.85-26 59.15-26L59.15-26 58-21.95Q55.85-21.95 54.5-20.6 53.15-19.25 53.15-17.1L53.15-17.1ZM53.15 0L48.6 0 48.6-36 53.15-36 53.15 0ZM90.39 0L85.84 0 85.84-17.2 90.39-17.2 90.39 0ZM79.74 0.75L79.74 0.75 80.09-3Q81.89-3 83.17-3.9 84.44-4.8 85.14-6.55 85.84-8.3 85.84-10.7L85.84-10.7 88.09-10.8Q88.09-7.4 86.99-4.8 85.89-2.2 84.02-0.73 82.14 0.75 79.74 0.75ZM80.09-3L79.74 0.75Q77.49 0.75 75.64-0.3 73.79-1.35 72.69-3.18 71.59-5 71.59-7.25L71.59-7.25 75.89-7.4Q75.89-5.5 77.17-4.25 78.44-3 80.09-3L80.09-3ZM75.89-7.4L71.59-7.25Q71.59-9.6 72.77-11.38 73.94-13.15 75.94-14.2 77.94-15.25 80.49-15.25L80.49-15.25 80.74-11.75Q78.64-11.75 77.27-10.53 75.89-9.3 75.89-7.4L75.89-7.4ZM88.19-11.75L80.74-11.75 80.49-15.25 88.19-15.25 88.19-11.75ZM88.09-10.8L85.84-10.7 85.84-17.15 88.09-17.15 88.09-10.8ZM90.39-17.1L90.39-17.1 85.84-17.1Q85.84-19.3 84.52-20.7 83.19-22.1 81.09-22.1L81.09-22.1 81.09-26Q83.79-26 85.87-24.85 87.94-23.7 89.17-21.68 90.39-19.65 90.39-17.1ZM76.39-17.7L76.39-17.7 72.19-18.55Q72.49-20.8 73.72-22.45 74.94-24.1 76.87-25.05 78.79-26 81.14-26L81.14-26 81.14-22.1Q79.29-22.1 77.97-21.03 76.64-19.95 76.39-17.7ZM100.09 0L95.54 0 95.54-25.25 100.09-25.25 100.09 0ZM113.14 0L108.59 0 108.59-17.2 113.14-17.2 113.14 0ZM100.09-17.1L98.04-17.1Q98.04-19.65 99.02-21.68 99.99-23.7 101.69-24.85 103.39-26 105.49-26L105.49-26 104.34-21.95Q102.54-21.95 101.32-20.6 100.09-19.25 100.09-17.1L100.09-17.1ZM113.14-17.2L108.59-17.2Q108.59-19.3 107.39-20.63 106.19-21.95 104.34-21.95L104.34-21.95 105.49-26Q107.69-26 109.42-24.85 111.14-23.7 112.14-21.73 113.14-19.75 113.14-17.2L113.14-17.2ZM126.14 0L121.59 0 121.59-17.2 126.14-17.2 126.14 0ZM113.14-17.1L111.09-17.1Q111.09-19.65 112.07-21.68 113.04-23.7 114.72-24.85 116.39-26 118.49-26L118.49-26 117.34-21.95Q115.54-21.95 114.34-20.6 113.14-19.25 113.14-17.1L113.14-17.1ZM126.14-17.2L121.59-17.2Q121.59-19.3 120.42-20.63 119.24-21.95 117.34-21.95L117.34-21.95 118.49-26Q120.69-26 122.42-24.85 124.14-23.7 125.14-21.73 126.14-19.75 126.14-17.2L126.14-17.2Z" opacity="1" transform="matrix(1,0,0,1,0,0)" fill="black" class="wordmark-text-0" id="SvgjsPath1135"></path></svg></g></svg></g></svg></g></svg></g></svg></g></svg></g></svg></g><path d="M188.173 81.495L188.173 24.975 385.424 24.975 385.424 222.225 188.173 222.225 188.173 165.705 194.685 165.705 194.685 215.713 378.912 215.713 378.912 31.487 194.685 31.487 194.685 81.495Z" fill="black" stroke="transparent"></path></svg></g><defs><mask></mask></defs></svg><rect width="395.52" height="247.2" fill="black" stroke="none" visibility="hidden"></rect></g></mask></svg><rect width="395.52" height="247.2" fill="black" stroke="none" visibility="hidden"></rect></g></mask><linearGradient x1="0" x2="1" y1="0.548" y2="0.55" id="2203be08-0988-49ed-8c06-17150e7abf29"><stop stop-color="#ff6cab" offset="0"></stop><stop stop-color="#7366ff" offset="1"></stop></linearGradient></svg><rect width="395.52" height="247.2" fill="none" stroke="none" visibility="hidden"></rect></g></svg></g></svg>