<svg id="visual" viewBox="0 0 400 200" width="200" height="100" xmlns="http://www.w3.org/2000/svg" xmlns:xlink="http://www.w3.org/1999/xlink" version="1.1"><rect x="0" y="0" width="900" height="450" fill="#001220"></rect><path d="M0 113L21.5 122C43 131 86 149 128.8 151.8C171.7 154.7 214.3 142.3 257.2 141.8C300 141.3 343 152.7 385.8 155.8C428.7 159 471.3 154 514.2 155.3C557 156.7 600 164.3 642.8 160.3C685.7 156.3 728.3 140.7 771.2 141.3C814 142 857 159 878.5 167.5L900 176L900 0L878.5 0C857 0 814 0 771.2 0C728.3 0 685.7 0 642.8 0C600 0 557 0 514.2 0C471.3 0 428.7 0 385.8 0C343 0 300 0 257.2 0C214.3 0 171.7 0 128.8 0C86 0 43 0 21.5 0L0 0Z" fill="#6600ff"></path><path d="M0 123L21.5 127.2C43 131.3 86 139.7 128.8 137.5C171.7 135.3 214.3 122.7 257.2 114.3C300 106 343 102 385.8 107.3C428.7 112.7 471.3 127.3 514.2 134.7C557 142 600 142 642.8 140.8C685.7 139.7 728.3 137.3 771.2 130.2C814 123 857 111 878.5 105L900 99L900 0L878.5 0C857 0 814 0 771.2 0C728.3 0 685.7 0 642.8 0C600 0 557 0 514.2 0C471.3 0 428.7 0 385.8 0C343 0 300 0 257.2 0C214.3 0 171.7 0 128.8 0C86 0 43 0 21.5 0L0 0Z" fill="#c400d0"></path><path d="M0 114L21.5 111.2C43 108.3 86 102.7 128.8 102.7C171.7 102.7 214.3 108.3 257.2 111.8C300 115.3 343 116.7 385.8 114.5C428.7 112.3 471.3 106.7 514.2 98.7C557 90.7 600 80.3 642.8 74.7C685.7 69 728.3 68 771.2 67.7C814 67.3 857 67.7 878.5 67.8L900 68L900 0L878.5 0C857 0 814 0 771.2 0C728.3 0 685.7 0 642.8 0C600 0 557 0 514.2 0C471.3 0 428.7 0 385.8 0C343 0 300 0 257.2 0C214.3 0 171.7 0 128.8 0C86 0 43 0 21.5 0L0 0Z" fill="#e800a9"></path><path d="M0 63L21.5 62.2C43 61.3 86 59.7 128.8 62C171.7 64.3 214.3 70.7 257.2 73.7C300 76.7 343 76.3 385.8 76.8C428.7 77.3 471.3 78.7 514.2 74.2C557 69.7 600 59.3 642.8 58.2C685.7 57 728.3 65 771.2 69.2C814 73.3 857 73.7 878.5 73.8L900 74L900 0L878.5 0C857 0 814 0 771.2 0C728.3 0 685.7 0 642.8 0C600 0 557 0 514.2 0C471.3 0 428.7 0 385.8 0C343 0 300 0 257.2 0C214.3 0 171.7 0 128.8 0C86 0 43 0 21.5 0L0 0Z" fill="#f90087"></path><path d="M0 45L21.5 42C43 39 86 33 128.8 28.8C171.7 24.7 214.3 22.3 257.2 25.5C300 28.7 343 37.3 385.8 42.2C428.7 47 471.3 48 514.2 45.3C557 42.7 600 36.3 642.8 36.7C685.7 37 728.3 44 771.2 43.7C814 43.3 857 35.7 878.5 31.8L900 28L900 0L878.5 0C857 0 814 0 771.2 0C728.3 0 685.7 0 642.8 0C600 0 557 0 514.2 0C471.3 0 428.7 0 385.8 0C343 0 300 0 257.2 0C214.3 0 171.7 0 128.8 0C86 0 43 0 21.5 0L0 0Z" fill="#ff0066"></path></svg>