<svg id="visual" viewBox="0 0 900 600" width="900" height="600" xmlns="http://www.w3.org/2000/svg" xmlns:xlink="http://www.w3.org/1999/xlink" version="1.1"><rect x="0" y="0" width="900" height="600" fill="#001220"></rect><path d="M0 221L21.5 211C43 201 86 181 128.8 171.8C171.7 162.7 214.3 164.3 257.2 173.7C300 183 343 200 385.8 208.5C428.7 217 471.3 217 514.2 212.8C557 208.7 600 200.3 642.8 191.8C685.7 183.3 728.3 174.7 771.2 171.3C814 168 857 170 878.5 171L900 172L900 0L878.5 0C857 0 814 0 771.2 0C728.3 0 685.7 0 642.8 0C600 0 557 0 514.2 0C471.3 0 428.7 0 385.8 0C343 0 300 0 257.2 0C214.3 0 171.7 0 128.8 0C86 0 43 0 21.5 0L0 0Z" fill="#6600ff"></path><path d="M0 135L21.5 142.5C43 150 86 165 128.8 169.2C171.7 173.3 214.3 166.7 257.2 162.3C300 158 343 156 385.8 157.7C428.7 159.3 471.3 164.7 514.2 171C557 177.3 600 184.7 642.8 187C685.7 189.3 728.3 186.7 771.2 184.2C814 181.7 857 179.3 878.5 178.2L900 177L900 0L878.5 0C857 0 814 0 771.2 0C728.3 0 685.7 0 642.8 0C600 0 557 0 514.2 0C471.3 0 428.7 0 385.8 0C343 0 300 0 257.2 0C214.3 0 171.7 0 128.8 0C86 0 43 0 21.5 0L0 0Z" fill="#2856ff"></path><path d="M0 143L21.5 140.2C43 137.3 86 131.7 128.8 126.3C171.7 121 214.3 116 257.2 116.8C300 117.7 343 124.3 385.8 123.5C428.7 122.7 471.3 114.3 514.2 115.3C557 116.3 600 126.7 642.8 127.8C685.7 129 728.3 121 771.2 118.3C814 115.7 857 118.3 878.5 119.7L900 121L900 0L878.5 0C857 0 814 0 771.2 0C728.3 0 685.7 0 642.8 0C600 0 557 0 514.2 0C471.3 0 428.7 0 385.8 0C343 0 300 0 257.2 0C214.3 0 171.7 0 128.8 0C86 0 43 0 21.5 0L0 0Z" fill="#0079ff"></path><path d="M0 112L21.5 111.8C43 111.7 86 111.3 128.8 105.2C171.7 99 214.3 87 257.2 79C300 71 343 67 385.8 66C428.7 65 471.3 67 514.2 73.3C557 79.7 600 90.3 642.8 95.5C685.7 100.7 728.3 100.3 771.2 100.2C814 100 857 100 878.5 100L900 100L900 0L878.5 0C857 0 814 0 771.2 0C728.3 0 685.7 0 642.8 0C600 0 557 0 514.2 0C471.3 0 428.7 0 385.8 0C343 0 300 0 257.2 0C214.3 0 171.7 0 128.8 0C86 0 43 0 21.5 0L0 0Z" fill="#1394fe"></path><path d="M0 63L21.5 60.8C43 58.7 86 54.3 128.8 54.2C171.7 54 214.3 58 257.2 54.7C300 51.3 343 40.7 385.8 39C428.7 37.3 471.3 44.7 514.2 47.2C557 49.7 600 47.3 642.8 43.7C685.7 40 728.3 35 771.2 37.2C814 39.3 857 48.7 878.5 53.3L900 58L900 0L878.5 0C857 0 814 0 771.2 0C728.3 0 685.7 0 642.8 0C600 0 557 0 514.2 0C471.3 0 428.7 0 385.8 0C343 0 300 0 257.2 0C214.3 0 171.7 0 128.8 0C86 0 43 0 21.5 0L0 0Z" fill="#4facf7"></path></svg>