<svg id="visual" viewBox="0 0 400 200" width="200" height="100" xmlns="http://www.w3.org/2000/svg" xmlns:xlink="http://www.w3.org/1999/xlink" version="1.1"><rect x="0" y="0" width="900" height="600" fill="#001220"></rect><path d="M0 155L21.5 163.7C43 172.3 86 189.7 128.8 194.8C171.7 200 214.3 193 257.2 199.8C300 206.7 343 227.3 385.8 227.5C428.7 227.7 471.3 207.3 514.2 206.8C557 206.3 600 225.7 642.8 227.3C685.7 229 728.3 213 771.2 203.8C814 194.7 857 192.3 878.5 191.2L900 190L900 0L878.5 0C857 0 814 0 771.2 0C728.3 0 685.7 0 642.8 0C600 0 557 0 514.2 0C471.3 0 428.7 0 385.8 0C343 0 300 0 257.2 0C214.3 0 171.7 0 128.8 0C86 0 43 0 21.5 0L0 0Z" fill="#0027ff"></path><path d="M0 194L21.5 190.5C43 187 86 180 128.8 172.7C171.7 165.3 214.3 157.7 257.2 153.8C300 150 343 150 385.8 153C428.7 156 471.3 162 514.2 158.7C557 155.3 600 142.7 642.8 148.3C685.7 154 728.3 178 771.2 186C814 194 857 186 878.5 182L900 178L900 0L878.5 0C857 0 814 0 771.2 0C728.3 0 685.7 0 642.8 0C600 0 557 0 514.2 0C471.3 0 428.7 0 385.8 0C343 0 300 0 257.2 0C214.3 0 171.7 0 128.8 0C86 0 43 0 21.5 0L0 0Z" fill="#4f21ff"></path><path d="M0 120L21.5 119.3C43 118.7 86 117.3 128.8 112.8C171.7 108.3 214.3 100.7 257.2 98.5C300 96.3 343 99.7 385.8 100C428.7 100.3 471.3 97.7 514.2 106.7C557 115.7 600 136.3 642.8 145.8C685.7 155.3 728.3 153.7 771.2 149.2C814 144.7 857 137.3 878.5 133.7L900 130L900 0L878.5 0C857 0 814 0 771.2 0C728.3 0 685.7 0 642.8 0C600 0 557 0 514.2 0C471.3 0 428.7 0 385.8 0C343 0 300 0 257.2 0C214.3 0 171.7 0 128.8 0C86 0 43 0 21.5 0L0 0Z" fill="#711aff"></path><path d="M0 61L21.5 65C43 69 86 77 128.8 77.3C171.7 77.7 214.3 70.3 257.2 65.5C300 60.7 343 58.3 385.8 57.8C428.7 57.3 471.3 58.7 514.2 61.3C557 64 600 68 642.8 69.7C685.7 71.3 728.3 70.7 771.2 77.3C814 84 857 98 878.5 105L900 112L900 0L878.5 0C857 0 814 0 771.2 0C728.3 0 685.7 0 642.8 0C600 0 557 0 514.2 0C471.3 0 428.7 0 385.8 0C343 0 300 0 257.2 0C214.3 0 171.7 0 128.8 0C86 0 43 0 21.5 0L0 0Z" fill="#8b10ff"></path><path d="M0 44L21.5 46.7C43 49.3 86 54.7 128.8 55.7C171.7 56.7 214.3 53.3 257.2 53.7C300 54 343 58 385.8 59.2C428.7 60.3 471.3 58.7 514.2 58.3C557 58 600 59 642.8 55.2C685.7 51.3 728.3 42.7 771.2 37.8C814 33 857 32 878.5 31.5L900 31L900 0L878.5 0C857 0 814 0 771.2 0C728.3 0 685.7 0 642.8 0C600 0 557 0 514.2 0C471.3 0 428.7 0 385.8 0C343 0 300 0 257.2 0C214.3 0 171.7 0 128.8 0C86 0 43 0 21.5 0L0 0Z" fill="#a200ff"></path></svg>